<?xml version="1.0" encoding="UTF-8" standalone="no"?>
<!-- Created with Inkscape (http://www.inkscape.org/) -->

<svg
   width="29mm"
   height="13mm"
   viewBox="0 0 29 13"
   version="1.1"
   id="svg5"
   inkscape:version="1.2 (dc2aedaf03, 2022-05-15)"
   sodipodi:docname="logo.svg"
   xmlns:inkscape="http://www.inkscape.org/namespaces/inkscape"
   xmlns:sodipodi="http://sodipodi.sourceforge.net/DTD/sodipodi-0.dtd"
   xmlns="http://www.w3.org/2000/svg"
   xmlns:svg="http://www.w3.org/2000/svg">
  <sodipodi:namedview
     id="namedview7"
     pagecolor="#ffffff"
     bordercolor="#000000"
     borderopacity="0.25"
     inkscape:showpageshadow="2"
     inkscape:pageopacity="0.0"
     inkscape:pagecheckerboard="0"
     inkscape:deskcolor="#d1d1d1"
     inkscape:document-units="mm"
     showgrid="false"
     inkscape:zoom="5.9651515"
     inkscape:cx="37.970536"
     inkscape:cy="35.372111"
     inkscape:window-width="1920"
     inkscape:window-height="1017"
     inkscape:window-x="1912"
     inkscape:window-y="-8"
     inkscape:window-maximized="1"
     inkscape:current-layer="layer1" />
  <defs
     id="defs2">
    <inkscape:path-effect
       effect="powerstroke"
       id="path-effect5277"
       is_visible="true"
       lpeversion="1"
       offset_points="2.3889797,0.66532257"
       not_jump="true"
       sort_points="true"
       interpolator_type="CentripetalCatmullRom"
       interpolator_beta="0.75"
       start_linecap_type="round"
       linejoin_type="spiro"
       miter_limit="4"
       scale_width="1"
       end_linecap_type="round" />
    <inkscape:path-effect
       effect="simplify"
       id="path-effect5275"
       is_visible="true"
       lpeversion="1"
       steps="1"
       threshold="0.0047745358"
       smooth_angles="0"
       helper_size="0"
       simplify_individual_paths="false"
       simplify_just_coalesce="false"
       step="1" />
    <inkscape:path-effect
       effect="powerstroke"
       id="path-effect5270"
       is_visible="true"
       lpeversion="1"
       offset_points="1.4305999,0.66532257"
       not_jump="true"
       sort_points="true"
       interpolator_type="CentripetalCatmullRom"
       interpolator_beta="0.75"
       start_linecap_type="round"
       linejoin_type="spiro"
       miter_limit="4"
       scale_width="1"
       end_linecap_type="round" />
    <inkscape:path-effect
       effect="simplify"
       id="path-effect5268"
       is_visible="true"
       lpeversion="1"
       steps="1"
       threshold="0.0047745358"
       smooth_angles="0"
       helper_size="0"
       simplify_individual_paths="false"
       simplify_just_coalesce="false"
       step="1" />
    <inkscape:path-effect
       effect="powerstroke"
       id="path-effect5263"
       is_visible="true"
       lpeversion="1"
       offset_points="2.3514702,0.66532257"
       not_jump="true"
       sort_points="true"
       interpolator_type="CentripetalCatmullRom"
       interpolator_beta="0.75"
       start_linecap_type="round"
       linejoin_type="spiro"
       miter_limit="4"
       scale_width="1"
       end_linecap_type="round" />
    <inkscape:path-effect
       effect="simplify"
       id="path-effect5261"
       is_visible="true"
       lpeversion="1"
       steps="1"
       threshold="0.0047745358"
       smooth_angles="0"
       helper_size="0"
       simplify_individual_paths="false"
       simplify_just_coalesce="false"
       step="1" />
    <inkscape:path-effect
       effect="powerstroke"
       id="path-effect5197"
       is_visible="true"
       lpeversion="1"
       offset_points="0.96860083,0.66532257"
       not_jump="true"
       sort_points="true"
       interpolator_type="CentripetalCatmullRom"
       interpolator_beta="0.75"
       start_linecap_type="round"
       linejoin_type="spiro"
       miter_limit="4"
       scale_width="1"
       end_linecap_type="round" />
    <inkscape:path-effect
       effect="simplify"
       id="path-effect5195"
       is_visible="true"
       lpeversion="1"
       steps="1"
       threshold="0.0047745358"
       smooth_angles="0"
       helper_size="0"
       simplify_individual_paths="false"
       simplify_just_coalesce="false"
       step="1" />
    <inkscape:path-effect
       effect="powerstroke"
       id="path-effect2105"
       is_visible="true"
       lpeversion="1"
       offset_points="0.9980818,0.66532257"
       not_jump="true"
       sort_points="true"
       interpolator_type="CentripetalCatmullRom"
       interpolator_beta="0.75"
       start_linecap_type="round"
       linejoin_type="spiro"
       miter_limit="4"
       scale_width="1"
       end_linecap_type="round" />
    <inkscape:path-effect
       effect="simplify"
       id="path-effect2103"
       is_visible="true"
       lpeversion="1"
       steps="1"
       threshold="0.0047745358"
       smooth_angles="0"
       helper_size="0"
       simplify_individual_paths="false"
       simplify_just_coalesce="false"
       step="1" />
    <inkscape:path-effect
       effect="powerstroke"
       id="path-effect2098"
       is_visible="true"
       lpeversion="1"
       offset_points="0.8390836,0.66532257"
       not_jump="true"
       sort_points="true"
       interpolator_type="CentripetalCatmullRom"
       interpolator_beta="0.75"
       start_linecap_type="round"
       linejoin_type="spiro"
       miter_limit="4"
       scale_width="1"
       end_linecap_type="round" />
    <inkscape:path-effect
       effect="simplify"
       id="path-effect2096"
       is_visible="true"
       lpeversion="1"
       steps="1"
       threshold="0.0047745358"
       smooth_angles="0"
       helper_size="0"
       simplify_individual_paths="false"
       simplify_just_coalesce="false"
       step="1" />
    <inkscape:path-effect
       effect="powerstroke"
       id="path-effect2091"
       is_visible="true"
       lpeversion="1"
       offset_points="0.72380152,0.66532257"
       not_jump="true"
       sort_points="true"
       interpolator_type="CentripetalCatmullRom"
       interpolator_beta="0.75"
       start_linecap_type="round"
       linejoin_type="spiro"
       miter_limit="4"
       scale_width="1"
       end_linecap_type="round" />
    <inkscape:path-effect
       effect="simplify"
       id="path-effect2089"
       is_visible="true"
       lpeversion="1"
       steps="1"
       threshold="0.0047745358"
       smooth_angles="0"
       helper_size="0"
       simplify_individual_paths="false"
       simplify_just_coalesce="false"
       step="1" />
    <inkscape:path-effect
       effect="powerstroke"
       id="path-effect341"
       is_visible="true"
       lpeversion="1"
       offset_points="1.2095891,0.66532257"
       not_jump="true"
       sort_points="true"
       interpolator_type="CentripetalCatmullRom"
       interpolator_beta="0.75"
       start_linecap_type="round"
       linejoin_type="spiro"
       miter_limit="4"
       scale_width="1"
       end_linecap_type="round" />
    <inkscape:path-effect
       effect="simplify"
       id="path-effect339"
       is_visible="true"
       lpeversion="1"
       steps="1"
       threshold="0.0047745358"
       smooth_angles="0"
       helper_size="0"
       simplify_individual_paths="false"
       simplify_just_coalesce="false"
       step="1" />
  </defs>
  <g
     inkscape:label="Capa 1"
     inkscape:groupmode="layer"
     id="layer1">
    <path
       d="m 1.125271,11.62123 c 1.6527811,-0.633661 4.6998675,-1.57895 9.0601,-1.599479 0.534626,-0.0025 1.126637,0.0087 1.771392,0.04183 0.356702,0.02841 0.7311,0.103108 1.147968,0.233528 0.372072,0.116405 0.747681,0.267105 1.169989,0.452744 0.383827,0.168725 0.789862,0.360021 1.223447,0.547667 0.405245,0.175381 0.843797,0.350708 1.305513,0.487686 1.896182,0.668647 3.927503,0.86845 5.863303,0.532261 1.02761,-0.15514 2.035563,-0.402263 2.847282,-0.609025 1.186929,-0.302336 2.137149,-0.547681 2.746808,-0.67901 a 0.66532257,0.66532257 90 0 0 -0.28021,-1.3008065 c -0.900047,0.1938813 -1.368023,0.3268515 -2.795052,0.6903455 -0.810346,0.206412 -1.76549,0.439475 -2.724493,0.58382 -0.0051,7.69e-4 -0.01021,0.0016 -0.0153,0.0025 -1.696327,0.295881 -3.499499,0.124605 -5.216276,-0.480767 -0.01105,-0.0039 -0.0222,-0.0075 -0.03344,-0.01081 -0.393102,-0.115675 -0.781152,-0.269242 -1.169637,-0.43737 C 15.619684,9.9002009 15.214474,9.7094247 14.810197,9.5317112 14.367303,9.3370218 13.941104,9.1645311 13.502042,9.0271679 13.001195,8.8704748 12.525069,8.7730773 12.051522,8.7362837 12.045799,8.7358391 12.04007,8.7354685 12.034337,8.7351721 11.359578,8.700284 10.739534,8.6884819 10.179106,8.6911205 5.6209086,8.7125815 2.4125779,9.7025996 0.64892246,10.37877 A 0.66532257,0.66532257 90 0 0 1.125271,11.62123 Z"
       id="path-1"
       inkscape:path-effect="#path-effect2096;#path-effect2098"
       inkscape:original-d="M 0.88709673,11 C 3.8430354,9.8626545 7.0877798,9.3588705 10.245968,9.3588705 c 0.949389,0 1.869305,-0.03051 2.794355,0.221775 0.980706,0.267465 1.901869,0.7734265 2.838709,1.1532255 1.171828,0.475066 2.465054,0.876076 3.725807,1.020162 2.858053,0.326634 5.761216,-0.784662 8.516129,-1.375"
       style="fill:#ededed;fill-opacity:1;fill-rule:nonzero;stroke:none" />
    <g
       aria-label="Bravekey"
       id="text63"
       style="font-size:6.35px;font-family:Pacifico;-inkscape-font-specification:'Pacifico, Normal';fill:#e8c4b8;stroke-width:0.264583">
      <path
         d="m 7.3747032,4.0972902 q 0,0.53975 -0.381,0.93345 -0.381,0.38735 -1.11125,0.5588 0.3937,0.10795 0.5969,0.3556 0.2032,0.2413 0.2032,0.5588 0,0.50165 -0.3175,0.86995 -0.31115,0.3683 -0.9144,0.5715 -0.60325,0.19685 -1.45415,0.19685 -0.3175,0 -0.508,-0.01905 -0.00635,0.1778 -0.1524,0.2667 -0.14605,0.0889 -0.37465,0.0889 -0.2286,0 -0.3175,-0.1016 -0.08255,-0.1016 -0.06985,-0.29845 0.05715,-0.889 0.22225,-1.86055 0.1651,-0.9779 0.4191,-1.88595 0.04445,-0.15875 0.1778,-0.22225 0.13335,-0.0635 0.34925,-0.0635 0.38735,0 0.38735,0.2159 0,0.0889 -0.0381,0.2032 -0.1651,0.4953 -0.3302,1.3462 -0.1651,0.84455 -0.23495,1.6129 0.3048,0.0254 0.4953,0.0254 0.889,0 1.30175,-0.254 0.4191,-0.26035 0.4191,-0.6604 0,-0.2794 -0.2413,-0.4699 -0.23495,-0.1905 -0.79375,-0.20955 -0.127,-0.00635 -0.1778,-0.0635 -0.0508,-0.05715 -0.0508,-0.18415 0,-0.18415 0.0762,-0.29845 0.0762,-0.1143 0.2794,-0.12065 0.45085,-0.0127 0.8128,-0.13335 0.3683,-0.12065 0.57785,-0.33655 0.20955,-0.22225 0.20955,-0.51435 0,-0.3683 -0.36195,-0.57785 -0.36195,-0.2159 -1.11125,-0.2159 -0.67945,0 -1.31445,0.1778 -0.635,0.17145 -1.0795,0.43815 -0.2032,0.12065 -0.3429,0.12065 -0.1143,0 -0.1778,-0.0762 -0.05715,-0.08255 -0.05715,-0.2032 0,-0.15875 0.0635,-0.27305 0.06985,-0.1143 0.32385,-0.26035 0.5334,-0.3048 1.25095,-0.47625 0.71755,-0.1714499 1.46685,-0.1714499 1.14935,0 1.7145,0.3873499 0.56515,0.38735 0.56515,1.02235 z"
         id="path5092" />
      <path
         d="m 7.7429982,8.1930402 q -0.2413,0 -0.3429,-0.254 -0.09525,-0.254 -0.09525,-0.8128 0,-0.8255 0.23495,-1.56845 0.05715,-0.18415 0.18415,-0.2667 0.13335,-0.0889 0.3683,-0.0889 0.127,0 0.1778,0.03175 0.0508,0.03175 0.0508,0.12065 0,0.1016 -0.09525,0.4572 -0.0635,0.254 -0.1016,0.4445 -0.0381,0.1905 -0.0635,0.4699 0.20955,-0.5461 0.4699,-0.889 0.26035,-0.3429 0.508,-0.48895 0.254,-0.14605 0.46355,-0.14605 0.41275,0 0.41275,0.41275 0,0.08255 -0.05715,0.40005 -0.0508,0.254 -0.0508,0.3175 0,0.22225 0.15875,0.22225 0.1777998,0 0.4571998,-0.2794 0.08255,-0.08255 0.17145,-0.08255 0.08255,0 0.127,0.0762 0.0508,0.06985 0.0508,0.1905 0,0.23495 -0.127,0.3683 -0.1778,0.18415 -0.4191,0.3175 -0.2349498,0.127 -0.5016498,0.127 -0.33655,0 -0.51435,-0.17145 -0.17145,-0.17145 -0.17145,-0.46355 0,-0.09525 0.01905,-0.1905 0.0127,-0.127 0.0127,-0.17145 0,-0.1016 -0.06985,-0.1016 -0.09525,0 -0.254,0.2159 -0.1524,0.20955 -0.3048,0.5588 -0.1524,0.34925 -0.24765,0.7366 -0.06985,0.29845 -0.1651,0.4064 -0.0889,0.1016 -0.28575,0.1016 z"
         id="path5094" />
      <path
         d="m 10.962448,8.1930402 q -0.3937,0 -0.62865,-0.28575 -0.23495,-0.28575 -0.23495,-0.7493 0,-0.508 0.23495,-0.95885 0.23495,-0.4572 0.6223,-0.73025 0.3937,-0.2794 0.83185,-0.2794 0.1397,0 0.18415,0.05715 0.0508,0.0508 0.08255,0.1905 0.13335,-0.0254 0.2794,-0.0254 0.31115,0 0.31115,0.22225 0,0.13335 -0.09525,0.635 -0.14605,0.73025 -0.14605,1.016 0,0.09525 0.04445,0.1524 0.0508,0.05715 0.127,0.05715 0.12065,0 0.2921,-0.1524 0.17145,-0.15875 0.46355,-0.508 0.0762,-0.0889 0.17145,-0.0889 0.08255,0 0.127,0.0762 0.0508,0.0762 0.0508,0.20955 0,0.254 -0.12065,0.3937 -0.26035,0.32385 -0.55245,0.5461 -0.2921,0.22225 -0.56515,0.22225 -0.20955,0 -0.38735,-0.1397 -0.17145,-0.14605 -0.26035,-0.3937 -0.3302,0.5334 -0.83185,0.5334 z m 0.2286,-0.64135 q 0.1397,0 0.2667,-0.1651 0.127,-0.1651 0.18415,-0.43815 l 0.23495,-1.1684 q -0.2667,0.00635 -0.4953,0.2032 -0.22225,0.1905 -0.3556,0.508 -0.13335,0.3175 -0.13335,0.6731 0,0.19685 0.0762,0.2921 0.08255,0.09525 0.22225,0.09525 z"
         id="path5096" />
      <path
         d="m 16.372644,6.2308902 q 0.01905,-0.00635 0.0635,-0.00635 0.09525,0 0.14605,0.0635 0.0508,0.0635 0.0508,0.17145 0,0.19685 -0.0762,0.31115 -0.0762,0.10795 -0.2286,0.15875 -0.2921,0.09525 -0.6223,0.09525 -0.2794,0 -0.52705,-0.0762 -0.18415,0.29845 -0.4064,0.61595 -0.254,0.36195 -0.438149,0.4953 -0.18415,0.13335 -0.4191,0.13335 -0.26035,0 -0.41275,-0.2032 -0.14605,-0.2032 -0.18415,-0.64135 -0.0762,-0.889 -0.0762,-1.55575 v -0.22225 q 0.0063,-0.20955 0.1143,-0.2921 0.10795,-0.08255 0.32385,-0.08255 0.1651,0 0.2413,0.0762 0.08255,0.06985 0.08255,0.2413 0,0.73025 0.0889,1.89865 0.380999,-0.56515 0.571499,-0.9017 -0.09525,-0.18415 -0.09525,-0.43815 0,-0.2159 0.09525,-0.4191 0.09525,-0.2032 0.26035,-0.3302 0.1651,-0.127 0.37465,-0.127 0.18415,0 0.29845,0.13335 0.1143,0.127 0.1143,0.37465 0,0.28575 -0.1524,0.65405 0.2413,-0.0127 0.64135,-0.09525 z"
         id="path5098" />
      <path
         d="m 18.912641,6.7452402 q 0.08255,0 0.127,0.0762 0.0508,0.0762 0.0508,0.20955 0,0.254 -0.12065,0.3937 -0.23495,0.28575 -0.66675,0.52705 -0.42545,0.2413 -0.9144,0.2413 -0.66675,0 -1.03505,-0.36195 -0.3683,-0.36195 -0.3683,-0.9906 0,-0.43815 0.18415,-0.8128 0.18415,-0.381 0.508,-0.60325 0.3302,-0.22225 0.74295,-0.22225 0.3683,0 0.59055,0.22225 0.22225,0.2159 0.22225,0.59055 0,0.43815 -0.3175,0.75565 -0.31115,0.31115 -1.06045,0.4953 0.15875,0.2921 0.60325,0.2921 0.28575,0 0.6477,-0.19685 0.3683,-0.2032 0.635,-0.52705 0.0762,-0.0889 0.17145,-0.0889 z m -1.6002,-0.92075 q -0.23495,0 -0.40005,0.27305 -0.15875,0.27305 -0.15875,0.6604 v 0.0127 q 0.37465,-0.0889 0.59055,-0.2667 0.2159,-0.1778 0.2159,-0.41275 0,-0.12065 -0.06985,-0.1905 -0.0635,-0.0762 -0.1778,-0.0762 z"
         id="path5100" />
      <path
         d="m 22.246389,6.7452402 q 0.08255,0 0.127,0.0762 0.0508,0.0762 0.0508,0.20955 0,0.254 -0.12065,0.3937 -0.28575,0.34925 -0.57785,0.5588 -0.2921,0.20955 -0.69215,0.20955 -0.48895,0 -0.7874,-0.2794 -0.29845,-0.2794 -0.29845,-0.74295 0,-0.24765 0.254,-0.3556 0.2794,-0.12065 0.40005,-0.254 0.12065,-0.1397 0.12065,-0.33655 0,-0.1143 -0.0508,-0.17145 -0.04445,-0.05715 -0.1143,-0.05715 -0.17145,0 -0.381,0.24765 -0.2032,0.24765 -0.381,0.64135 -0.1778,0.38735 -0.2794,0.8001 -0.06985,0.29845 -0.1651,0.4064 -0.0889,0.1016 -0.28575,0.1016 -0.19685,0 -0.2921,-0.1397 -0.0889,-0.14605 -0.12065,-0.4445 -0.03175,-0.29845 -0.03175,-0.8763 0,-0.9779 0.19685,-2.03835 0.2032,-1.06045 0.59055,-1.778 0.3937,-0.7238999 0.9398,-0.7238999 0.2921,0 0.4699,0.254 0.18415,0.24765 0.18415,0.6476999 0,0.64135 -0.37465,1.3335 -0.37465,0.6858 -1.2192,1.60655 -0.01905,0.3302 -0.01905,0.67945 0.3048,-0.79375 0.6985,-1.14935 0.3937,-0.36195 0.7366,-0.36195 0.3175,0 0.508,0.2159 0.19685,0.2159 0.19685,0.5334 0,0.34925 -0.1778,0.64135 -0.1778,0.2921 -0.6096,0.5207 0.0254,0.17145 0.1524,0.2794 0.13335,0.1016 0.3175,0.1016 0.19685,0 0.381,-0.1524 0.18415,-0.1524 0.4826,-0.508 0.0762,-0.0889 0.17145,-0.0889 z m -2.032,-3.9243 q -0.1143,0 -0.254,0.3302 -0.1397,0.32385 -0.27305,0.88265 -0.127,0.55245 -0.20955,1.2065 0.3937,-0.46355 0.6477,-1.00965 0.26035,-0.5461 0.26035,-0.9906 0,-0.2032 -0.04445,-0.31115 -0.04445,-0.10795 -0.127,-0.10795 z"
         id="path5102" />
      <path
         d="m 24.741937,6.7452402 q 0.08255,0 0.127,0.0762 0.0508,0.0762 0.0508,0.20955 0,0.254 -0.12065,0.3937 -0.23495,0.28575 -0.66675,0.52705 -0.42545,0.2413 -0.9144,0.2413 -0.66675,0 -1.03505,-0.36195 -0.3683,-0.36195 -0.3683,-0.9906 0,-0.43815 0.18415,-0.8128 0.18415,-0.381 0.508,-0.60325 0.3302,-0.22225 0.74295,-0.22225 0.3683,0 0.59055,0.22225 0.22225,0.2159 0.22225,0.59055 0,0.43815 -0.3175,0.75565 -0.31115,0.31115 -1.06045,0.4953 0.15875,0.2921 0.60325,0.2921 0.28575,0 0.6477,-0.19685 0.3683,-0.2032 0.635,-0.52705 0.0762,-0.0889 0.17145,-0.0889 z m -1.6002,-0.92075 q -0.23495,0 -0.40005,0.27305 -0.15875,0.27305 -0.15875,0.6604 v 0.0127 q 0.37465,-0.0889 0.59055,-0.2667 0.2159,-0.1778 0.2159,-0.41275 0,-0.12065 -0.06985,-0.1905 -0.0635,-0.0762 -0.1778,-0.0762 z"
         id="path5104" />
      <path
         d="m 26.627884,5.2021902 q 0.14605,0 0.2032,0.0381 0.05715,0.0381 0.05715,0.127 0,0.1524 -0.1651,1.08585 -0.14605,0.89535 -0.17145,1.06045 -0.23495,1.63195 -0.6477,2.5844498 -0.41275,0.9525 -1.09855,0.9525 -0.32385,0 -0.52705,-0.2032 -0.2032,-0.19685 -0.2032,-0.5207 0,-0.29845 0.13335,-0.6095999 0.1397,-0.3111499 0.508,-0.7175499 0.37465,-0.40005 1.0541,-0.92075 l 0.01905,-0.14605 q 0.04445,-0.23495 0.1016,-0.6731 -0.127,0.4572 -0.3556,0.6985 -0.2286,0.23495 -0.4826,0.23495 -0.28575,0 -0.4699,-0.26035 -0.1778,-0.2667 -0.1778,-0.6604 0,-0.47625 0.0635,-0.86995 0.0635,-0.40005 0.20955,-0.84455 0.0635,-0.1905 0.1778,-0.27305 0.1143,-0.08255 0.36195,-0.08255 0.1397,0 0.1905,0.04445 0.05715,0.04445 0.05715,0.13335 0,0.0508 -0.06985,0.3429 -0.0635,0.23495 -0.1016,0.42545 -0.0508,0.26035 -0.0889,0.50165 -0.0381,0.23495 -0.0381,0.38735 0,0.2413 0.13335,0.2413 0.09525,0 0.23495,-0.1905 0.14605,-0.1905 0.3048,-0.57785 0.1651,-0.38735 0.3175,-0.9525 0.0508,-0.1905 0.1524,-0.27305 0.10795,-0.08255 0.3175,-0.08255 z m -1.7526,5.2323998 q 0.15875,0 0.3556,-0.3683 0.19685,-0.3682999 0.3937,-1.2255498 -0.48895,0.41275 -0.7112,0.7492999 -0.2159,0.3429 -0.2159,0.5968999 0,0.10795 0.0381,0.1778 0.04445,0.06985 0.1397,0.06985 z"
         id="path5106" />
    </g>
    <path
       style="fill:#f7f4a1;fill-opacity:1;stroke-width:0.264583"
       d="m 23.375,4.4354839 -0.04435,-2.483871 1.064516,1.2419353 0.754033,-1.3749998 0.842741,1.3306451 0.931452,-1.2862903 v 2.6169354 z"
       id="path5339" />
  </g>
</svg>
